# xmcd
#
# Track frame offsets:
# 150
# 10263
# 24288
# 34638
# 45288
# 57588
# 69888
# 80988
# 95988
# 105888
# 115863
# 125613
# 136563
# 158013
# 171513
# 183588
# 195588
# 206313
# 218838
# 232713
#
# Disc length: 3322 seconds
#
#
# Revision: 0
# Processed by: cddbd v1.5.2PL0 Copyright (c) Steve Scherf et al.
# Submitted via: FreeRIP 2.944 
#
DISCID=020cf814
DTITLE=Various Artist - Congratulations
DYEAR=1900
DGENRE=Easy Listening
TTITLE0=Frank Sinatra - I've Got the World
TTITLE1=Tony Bennet - Rags to Riches
TTITLE2=Dean Martin - Memories are Made of This
TTITLE3=The Everly Brothers - All I Have to Do is Dream
TTITLE4=Perry Como - Magic Moments
TTITLE5=Doris Day - Everybody Loves a Lover
TTITLE6=Sam Butera n the Witnesses - French Poodle
TTITLE7=Carmen McRae n Sammy Davis Jr - People will say
TTITLE8=Frank Sinatra - Let's Get Away from it all
TTITLE9=Johnny Ray - All of me
TTITLE10=Buddy Holly - Everyday
TTITLE11=Shirley n Lee - Let the Good Times Roll
TTITLE12=Louis Prisma - Just a Gigolo
TTITLE13=Peggy Lee - They cnat take that away from me
TTITLE14=The Platters - Smoke gets in your eyes
TTITLE15=Sarah Vaughan - Passing strangers
TTITLE16=Jimmie Rodgers - Kisses sweeter than wine
TTITLE17=Ella Fitzerald - With a song in my heart
TTITLE18=Dean Martin - When you're smiling
TTITLE19=Glenn Miller Orchestra - In the Mood
EXTD=
EXTT0=
EXTT1=
EXTT2=
EXTT3=
EXTT4=
EXTT5=
EXTT6=
EXTT7=
EXTT8=
EXTT9=
EXTT10=
EXTT11=
EXTT12=
EXTT13=
EXTT14=
EXTT15=
EXTT16=
EXTT17=
EXTT18=
EXTT19=
PLAYORDER=
